<svg xmlns="http://www.w3.org/2000/svg" viewBox="0 0 180 180" role="img" aria-label="SproutLife icon">
  <defs>
    <linearGradient id="leafGradient" x1="0" x2="1" y1="1" y2="0">
      <stop offset="0" stop-color="#0f5132" />
      <stop offset="1" stop-color="#1fb06a" />
    </linearGradient>
    <linearGradient id="stemGradient" x1="0.2" x2="0.8" y1="1" y2="0">
      <stop offset="0" stop-color="#0b3b24" />
      <stop offset="1" stop-color="#138f50" />
    </linearGradient>
  </defs>
  <rect width="180" height="180" rx="28" fill="#e6f4eb" />
  <g transform="translate(54 34)">
    <path d="M36 110c9.5-14 13-29.5 10.5-50.5-10 11-21 16.5-33 16.5-4.5 0-8.6-0.7-12.4-2.1C2.6 59 0 49 0 40.2 0 18.3 16.8 0 39 0c22.2 0 39 15.8 39 39.6 0 13-3.7 24-11.1 34.5C62 99 50.5 110 36 110Z" fill="url(#leafGradient)" />
    <path d="M48 111c0-25-5-46-15-62 7 1 14-2.4 21.6-10.3C60 44 67 54 67 64.7 67 83 54.5 98 48 111Z" fill="#30c17c" fill-opacity="0.85" />
    <path d="M36 110c-3.3 5.8-8 11-14 15 6-12.5 9-26 9-43 0-12.5-2.8-25-8.4-37.5C28 52 35.8 52 48 44.7c-4 19-6 41-12 65.3Z" fill="url(#stemGradient)" />
  </g>
</svg>
